<svg width="1033" height="378" viewBox="0 0 1033 378" fill="none" xmlns="http://www.w3.org/2000/svg">
<rect width="1033" height="378" fill="white"/>
<path d="M201.821 109.688C137.579 183.396 201.821 217.782 223.134 243.252C374.414 424.037 886.43 426.021 847.826 194.601C820.781 32.4813 914.25 -1.20109 807.21 12.3861C700.17 25.9733 590.771 162.912 521.019 55.9677C451.268 -50.9764 269.817 31.6711 201.821 109.688Z" fill="#E5F8FA"/>
<path d="M387.748 132.079V133.079H388.748H389.28V160.872H388.748H387.748V161.872V319.842C387.748 322.892 387.146 325.912 385.975 328.729C384.805 331.547 383.09 334.107 380.927 336.264C378.764 338.42 376.197 340.131 373.371 341.299C370.545 342.466 367.516 343.067 364.457 343.067H275.538C272.479 343.067 269.45 342.466 266.624 341.299C263.798 340.131 261.23 338.42 259.067 336.264C256.905 334.107 255.189 331.547 254.019 328.729C252.849 325.912 252.247 322.892 252.247 319.842V90.2244C252.247 87.1749 252.849 84.1552 254.019 81.3377C255.189 78.5202 256.905 75.9599 259.067 73.8032C261.23 71.6465 263.798 69.9356 266.624 68.7682C269.45 67.6009 272.479 67 275.538 67H364.457C367.516 67 370.545 67.6008 373.371 68.7682C376.197 69.9355 378.764 71.6465 380.927 73.8032C383.09 75.9599 384.805 78.5202 385.975 81.3377C387.146 84.1552 387.748 87.1749 387.748 90.2244V132.079Z" fill="white" stroke="#DDEFF1" stroke-width="2"/>
<path opacity="0.2" d="M382.962 90.4802V319.587C382.964 321.961 382.498 324.313 381.589 326.507C380.681 328.701 379.348 330.695 377.667 332.374C375.986 334.053 373.991 335.384 371.794 336.292C369.598 337.2 367.244 337.666 364.867 337.664H275.745C273.368 337.666 271.014 337.199 268.818 336.291C266.622 335.383 264.626 334.052 262.946 332.373C261.265 330.694 259.932 328.7 259.023 326.506C258.115 324.312 257.648 321.961 257.649 319.587V90.4802C257.648 88.1058 258.115 85.7543 259.023 83.5603C259.932 81.3663 261.265 79.3728 262.946 77.6938C264.626 76.0149 266.622 74.6834 268.818 73.7755C271.014 72.8676 273.368 72.4012 275.745 72.4028H286.556C286.024 73.7069 285.82 75.1217 285.964 76.5226C286.108 77.9236 286.595 79.2677 287.381 80.4365C288.168 81.6053 289.23 82.563 290.474 83.2251C291.718 83.8872 293.106 84.2334 294.516 84.2333H345.33C346.74 84.2334 348.128 83.8872 349.372 83.2251C350.616 82.563 351.679 81.6053 352.465 80.4365C353.251 79.2677 353.738 77.9236 353.882 76.5226C354.026 75.1217 353.823 73.7069 353.29 72.4028H364.867C367.244 72.4007 369.598 72.8668 371.794 73.7746C373.991 74.6823 375.986 76.0138 377.667 77.6928C379.348 79.3719 380.681 81.3656 381.589 83.5598C382.498 85.754 382.964 88.1057 382.962 90.4802Z" fill="#C4C4FC"/>
<path d="M280.517 72.4029V337.664H275.89C274.68 337.666 273.473 337.557 272.284 337.34V72.7267C273.473 72.5095 274.68 72.4011 275.89 72.4029L280.517 72.4029Z" fill="white"/>
<path d="M322.593 84.2938H314.36V337.664H322.593V84.2938Z" fill="white"/>
<path d="M371.071 73.5188V336.548C369.19 337.289 367.201 337.667 365.195 337.664H363.754V72.4028H365.195C367.201 72.4001 369.19 72.778 371.071 73.5188Z" fill="white"/>
<path d="M382.962 116.308H257.649V124.54H382.962V116.308Z" fill="white"/>
<path d="M382.962 205.033H257.649V213.266H382.962V205.033Z" fill="white"/>
<path d="M379.304 248.939H316.19V256.256H379.304V248.939Z" fill="white"/>
<path d="M382.962 150.152H314.36V157.469H382.962V150.152Z" fill="white"/>
<path d="M320.763 124.01L319.848 124.535L315.064 127.278L280.356 147.188L272.467 151.714L257.649 160.213V151.161L272.467 142.662L280.356 138.14L304.072 124.535L315.064 118.23L316.819 117.223L320.763 124.01Z" fill="white"/>
<path d="M382.962 291.015H257.649V298.332H382.962V291.015Z" fill="white"/>
<path d="M310 142.219C310 174.372 252 246 252 246C252 246 194 174.372 194 142.219C194 126.778 200.111 111.97 210.988 101.052C221.865 90.1337 236.617 84 252 84C267.383 84 282.135 90.1337 293.012 101.052C303.889 111.97 310 126.778 310 142.219Z" fill="#36B5BD"/>
<path opacity="0.8" d="M252 185C275.748 185 295 165.524 295 141.5C295 117.476 275.748 98 252 98C228.252 98 209 117.476 209 141.5C209 165.524 228.252 185 252 185Z" fill="white"/>
<path d="M254.5 158C263.613 158 271 151.06 271 142.5C271 133.94 263.613 127 254.5 127C245.387 127 238 133.94 238 142.5C238 151.06 245.387 158 254.5 158Z" fill="#36B5BD"/>
<path d="M279.567 189C280.236 185.593 280.129 182.083 279.254 178.721C278.379 175.36 276.758 172.229 274.506 169.554C272.254 166.878 269.428 164.724 266.228 163.245C263.029 161.767 259.536 161 256 161C252.464 161 248.971 161.767 245.771 163.245C242.572 164.724 239.746 166.878 237.494 169.554C235.242 172.229 233.621 175.36 232.746 178.721C231.871 182.083 231.764 185.593 232.433 189H279.567Z" fill="#36B5BD"/>
<path d="M250.5 269C255.194 269 259 265.418 259 261C259 256.582 255.194 253 250.5 253C245.806 253 242 256.582 242 261C242 265.418 245.806 269 250.5 269Z" fill="#36B5BD"/>
<g filter="url(#filter0_d)">
<path d="M520.687 348.581L362.44 360.661V57.9401L520.687 45.86V348.581Z" fill="url(#paint0_linear)"/>
<path d="M520.687 348.581L678.934 360.661V57.9401L520.687 45.86V348.581Z" fill="url(#paint1_linear)"/>
<path d="M834 348.581L678.934 360.661V57.9401L834 45.86V348.581Z" fill="url(#paint2_linear)"/>
<path d="M521.482 340.002L367.211 351.611V60.7011L521.482 49.092V340.002Z" fill="white"/>
<path d="M521.482 340.002L674.958 351.611V60.7011L521.482 49.092V340.002Z" fill="#DEDEE4"/>
<path d="M828.434 340.002L674.958 351.611V60.7011L828.434 49.092V340.002Z" fill="white"/>
<path opacity="0.3" d="M520.938 76.2411L404.586 79.5366V92.3754V109.944V122.783H503.36V107.146L520.938 106.648L547.724 113.323V82.9154L520.938 76.2411Z" fill="#43EF69"/>
<path opacity="0.3" d="M521.482 320.557L390.273 330.926V291.522L521.482 281.153V320.557Z" fill="#43EF69"/>
<path opacity="0.3" d="M507.168 199.813L375.959 210.048V171.156L507.168 160.921V199.813Z" fill="#43EF69"/>
<path opacity="0.3" d="M655.873 290.202H598.618V325.755H655.873V290.202Z" fill="#70CF85"/>
<path opacity="0.3" d="M636.788 206.816H580.328V242.368H636.788V206.816Z" fill="#70CF85"/>
<path opacity="0.3" d="M660.644 96.2798H603.389V131.186H660.644V96.2798Z" fill="#70CF85"/>
<path opacity="0.3" d="M806.963 309.296L717.899 315.412V268.523L806.963 262.407V309.296Z" fill="#43EF69"/>
<path opacity="0.3" d="M796.625 143.741L707.562 149.932V102.471L796.625 96.2798V143.741Z" fill="#43EF69"/>
<path d="M781.025 55.8744C781.025 72.8293 751.613 120.843 751.613 120.843C751.613 120.843 722.202 72.8293 722.202 55.8744C722.202 38.9195 735.37 25.1748 751.613 25.1748C767.857 25.1748 781.025 38.9195 781.025 55.8744Z" fill="url(#paint3_linear)"/>
<path d="M751.29 63.313C756.288 63.313 760.34 59.1166 760.34 53.9401C760.34 48.7635 756.288 44.5671 751.29 44.5671C746.292 44.5671 742.24 48.7635 742.24 53.9401C742.24 59.1166 746.292 63.313 751.29 63.313Z" fill="url(#paint4_linear)"/>
<path d="M779.086 56.2266C779.086 71.234 751.613 113.733 751.613 113.733C751.613 113.733 724.141 71.234 724.141 56.2266C724.141 49.0198 727.035 42.1082 732.188 37.0122C737.34 31.9162 744.327 29.0533 751.613 29.0533C758.9 29.0533 765.887 31.9162 771.039 37.0122C776.191 42.1082 779.086 49.0198 779.086 56.2266Z" fill="#36B5BD"/>
<path d="M751.29 62.6666C755.931 62.6666 759.693 58.9043 759.693 54.2633C759.693 49.6223 755.931 45.86 751.29 45.86C746.649 45.86 742.887 49.6223 742.887 54.2633C742.887 58.9043 746.649 62.6666 751.29 62.6666Z" fill="white"/>
<path d="M460.048 247.419C460.048 264.488 429.343 312.827 429.343 312.827C429.343 312.827 398.639 264.488 398.639 247.419C398.639 230.349 412.386 216.512 429.343 216.512C446.301 216.512 460.048 230.349 460.048 247.419Z" fill="url(#paint5_linear)"/>
<path d="M429.343 254.65C434.52 254.65 438.716 250.454 438.716 245.277C438.716 240.1 434.52 235.904 429.343 235.904C424.167 235.904 419.971 240.1 419.971 245.277C419.971 250.454 424.167 254.65 429.343 254.65Z" fill="url(#paint6_linear)"/>
<path d="M456.816 247.132C456.816 262.252 429.343 305.07 429.343 305.07C429.343 305.07 401.871 262.252 401.871 247.132C401.87 243.536 402.579 239.975 403.959 236.652C405.339 233.329 407.363 230.31 409.914 227.766C412.465 225.223 415.494 223.205 418.828 221.829C422.162 220.452 425.735 219.744 429.343 219.744C432.952 219.744 436.525 220.452 439.859 221.829C443.193 223.205 446.222 225.223 448.773 227.766C451.324 230.31 453.348 233.329 454.728 236.652C456.108 239.975 456.817 243.536 456.816 247.132H456.816Z" fill="#36B5BD"/>
<path d="M429.343 253.357C433.806 253.357 437.424 249.74 437.424 245.277C437.424 240.814 433.806 237.197 429.343 237.197C424.881 237.197 421.263 240.814 421.263 245.277C421.263 249.74 424.881 253.357 429.343 253.357Z" fill="white"/>
<path d="M604.843 249.51C604.843 264.516 577.371 307.009 577.371 307.009C577.371 307.009 549.899 264.516 549.899 249.51C549.897 245.941 550.607 242.407 551.987 239.109C553.367 235.812 555.39 232.815 557.941 230.291C560.492 227.767 563.521 225.765 566.855 224.399C570.189 223.033 573.762 222.33 577.371 222.33C580.98 222.33 584.553 223.033 587.887 224.399C591.221 225.765 594.25 227.767 596.801 230.291C599.352 232.815 601.375 235.812 602.755 239.109C604.135 242.407 604.845 245.941 604.843 249.51Z" fill="#36B5BD"/>
<path d="M577.371 255.943C581.834 255.943 585.451 252.18 585.451 247.539C585.451 242.898 581.834 239.136 577.371 239.136C572.909 239.136 569.291 242.898 569.291 247.539C569.291 252.18 572.909 255.943 577.371 255.943Z" fill="white"/>
<path d="M712.147 232.257C712.147 247.379 684.675 290.202 684.675 290.202C684.675 290.202 657.203 247.379 657.203 232.257C657.203 224.995 660.097 218.031 665.249 212.896C670.401 207.761 677.389 204.876 684.675 204.876C691.961 204.876 698.949 207.761 704.101 212.896C709.253 218.031 712.147 224.995 712.147 232.257Z" fill="#36B5BD"/>
<path d="M684.675 238.49C689.137 238.49 692.755 234.872 692.755 230.41C692.755 225.947 689.137 222.33 684.675 222.33C680.212 222.33 676.595 225.947 676.595 230.41C676.595 234.872 680.212 238.49 684.675 238.49Z" fill="white"/>
<path d="M470.39 44.8061C470.39 59.9261 443.241 102.744 443.241 102.744C443.241 102.744 416.092 59.9261 416.092 44.8061C416.091 41.2099 416.792 37.6487 418.156 34.3259C419.519 31.0031 421.519 27.9838 424.04 25.4404C426.561 22.8971 429.555 20.8795 432.849 19.503C436.144 18.1265 439.675 17.418 443.241 17.418C446.807 17.418 450.339 18.1265 453.633 19.503C456.928 20.8795 459.921 22.8971 462.442 25.4404C464.964 27.9838 466.963 31.0031 468.327 34.3259C469.691 37.6487 470.392 41.2099 470.39 44.8061H470.39Z" fill="#36B5BD"/>
<path d="M443.241 51.0312C447.882 51.0312 451.645 47.4136 451.645 42.9511C451.645 38.4886 447.882 34.871 443.241 34.871C438.6 34.871 434.838 38.4886 434.838 42.9511C434.838 47.4136 438.6 51.0312 443.241 51.0312Z" fill="white"/>
</g>
<defs>
<filter id="filter0_d" x="358.44" y="17.418" width="479.56" height="351.243" filterUnits="userSpaceOnUse" color-interpolation-filters="sRGB">
<feFlood flood-opacity="0" result="BackgroundImageFix"/>
<feColorMatrix in="SourceAlpha" type="matrix" values="0 0 0 0 0 0 0 0 0 0 0 0 0 0 0 0 0 0 127 0"/>
<feOffset dy="4"/>
<feGaussianBlur stdDeviation="2"/>
<feColorMatrix type="matrix" values="0 0 0 0 0 0 0 0 0 0 0 0 0 0 0 0 0 0 0.1 0"/>
<feBlend mode="normal" in2="BackgroundImageFix" result="effect1_dropShadow"/>
<feBlend mode="normal" in="SourceGraphic" in2="effect1_dropShadow" result="shape"/>
</filter>
<linearGradient id="paint0_linear" x1="441.564" y1="360.661" x2="441.564" y2="45.8599" gradientUnits="userSpaceOnUse">
<stop stop-color="#808080" stop-opacity="0.25"/>
<stop offset="0.53514" stop-color="#808080" stop-opacity="0.12"/>
<stop offset="1" stop-color="#808080" stop-opacity="0.1"/>
</linearGradient>
<linearGradient id="paint1_linear" x1="71212.1" y1="250218" x2="71212.1" y2="20707.4" gradientUnits="userSpaceOnUse">
<stop stop-color="#808080" stop-opacity="0.25"/>
<stop offset="0.53514" stop-color="#808080" stop-opacity="0.12"/>
<stop offset="1" stop-color="#808080" stop-opacity="0.1"/>
</linearGradient>
<linearGradient id="paint2_linear" x1="115677" y1="250218" x2="115677" y2="20707.4" gradientUnits="userSpaceOnUse">
<stop stop-color="#808080" stop-opacity="0.25"/>
<stop offset="0.53514" stop-color="#808080" stop-opacity="0.12"/>
<stop offset="1" stop-color="#808080" stop-opacity="0.1"/>
</linearGradient>
<linearGradient id="paint3_linear" x1="751.613" y1="120.843" x2="751.613" y2="25.1748" gradientUnits="userSpaceOnUse">
<stop stop-color="#B3B3B3" stop-opacity="0.25"/>
<stop offset="0.53514" stop-color="#B3B3B3" stop-opacity="0.1"/>
<stop offset="1" stop-color="#B3B3B3" stop-opacity="0.05"/>
</linearGradient>
<linearGradient id="paint4_linear" x1="751.29" y1="63.313" x2="751.29" y2="44.5671" gradientUnits="userSpaceOnUse">
<stop stop-opacity="0.12"/>
<stop offset="0.55135" stop-opacity="0.09"/>
<stop offset="1" stop-opacity="0.02"/>
</linearGradient>
<linearGradient id="paint5_linear" x1="19505.8" y1="71131.3" x2="19505.8" y2="49721.4" gradientUnits="userSpaceOnUse">
<stop stop-color="#B3B3B3" stop-opacity="0.25"/>
<stop offset="0.53514" stop-color="#B3B3B3" stop-opacity="0.1"/>
<stop offset="1" stop-color="#B3B3B3" stop-opacity="0.05"/>
</linearGradient>
<linearGradient id="paint6_linear" x1="429.343" y1="254.65" x2="429.343" y2="235.904" gradientUnits="userSpaceOnUse">
<stop offset="0.00541" stop-opacity="0.12"/>
<stop offset="0.55135" stop-opacity="0.09"/>
<stop offset="1" stop-opacity="0.05"/>
</linearGradient>
</defs>
</svg>
